<svg width="512" height="512" viewBox="0 0 512 512" fill="none" xmlns="http://www.w3.org/2000/svg">
  <defs>
    <linearGradient id="bg" x1="72" y1="52" x2="452" y2="468" gradientUnits="userSpaceOnUse">
      <stop stop-color="#18245E"/>
      <stop offset="0.52" stop-color="#3F50C8"/>
      <stop offset="1" stop-color="#756FE9"/>
    </linearGradient>
    <linearGradient id="glow" x1="96" y1="76" x2="410" y2="420" gradientUnits="userSpaceOnUse">
      <stop stop-color="#FFFFFF" stop-opacity="0.18"/>
      <stop offset="1" stop-color="#FFFFFF" stop-opacity="0"/>
    </linearGradient>
    <filter id="shadow" x="74" y="82" width="364" height="350" filterUnits="userSpaceOnUse" color-interpolation-filters="sRGB">
      <feDropShadow dx="0" dy="14" stdDeviation="15" flood-color="#0A123B" flood-opacity="0.28"/>
    </filter>
  </defs>

  <rect width="512" height="512" rx="116" fill="url(#bg)"/>
  <rect x="18" y="18" width="476" height="476" rx="102" stroke="#FFFFFF" stroke-opacity="0.12" stroke-width="3"/>
  <path d="M38 122C134 74 246 64 350 87C408 100 455 122 490 150V18H116C71 18 38 50 38 96V122Z" fill="url(#glow)"/>

  <g filter="url(#shadow)" fill="#FFFFFF">
    <!-- Clear P -->
    <path d="M112 352V160H158V352H112Z"/>
    <path d="M148 160H203C250 160 279 186 279 225C279 264 250 290 203 290H148V250H199C220 250 233 241 233 225C233 209 220 200 199 200H148V160Z"/>

    <!-- Clear B -->
    <path d="M288 352V160H333V352H288Z"/>
    <path d="M326 160H361C402 160 426 181 426 214C426 234 416 250 398 260C419 270 431 288 431 311C431 346 406 368 362 368H326V329H358C376 329 386 321 386 307C386 294 376 286 358 286H326V247H357C372 247 381 240 381 228C381 216 372 209 357 209H326V160Z"/>
  </g>

  <circle cx="384" cy="143" r="7" fill="#C8CBFF" fill-opacity="0.95"/>
</svg>